<svg width="96" height="96" viewBox="0 0 96 96" fill="none" xmlns="http://www.w3.org/2000/svg">
<g clip-path="url(#paint0_angular_657_7367_clip_path)" data-figma-skip-parse="true"><g transform="matrix(0.00481752 -0.00475582 0.00501274 0.00507778 49.1825 64.2558)"><foreignObject x="-1521.87" y="-1521.87" width="3043.74" height="3043.74"><div xmlns="http://www.w3.org/1999/xhtml" style="background:conic-gradient(from 90deg,rgba(0, 234, 165, 0.2) 0deg,rgba(133, 255, 219, 1) 360deg);height:100%;width:100%;opacity:1"></div></foreignObject></g></g><path d="M53.4159 65.2922H52.6659C52.6659 67.5969 50.7975 69.4653 48.4928 69.4653V70.2153V70.9653C51.626 70.9653 54.1659 68.4254 54.1659 65.2922H53.4159ZM48.4928 70.2153V69.4653C46.1881 69.4653 44.3197 67.5969 44.3197 65.2922H43.5697H42.8197C42.8197 68.4254 45.3596 70.9653 48.4928 70.9653V70.2153ZM43.5697 65.2922H44.3197C44.3197 62.9875 46.1881 61.1191 48.4928 61.1191V60.3691V59.6191C45.3596 59.6191 42.8197 62.1591 42.8197 65.2922H43.5697ZM48.4928 60.3691V61.1191C50.7975 61.1191 52.6659 62.9875 52.6659 65.2922H53.4159H54.1659C54.1659 62.1591 51.626 59.6191 48.4928 59.6191V60.3691Z" data-figma-gradient-fill="{&#34;type&#34;:&#34;GRADIENT_ANGULAR&#34;,&#34;stops&#34;:[{&#34;color&#34;:{&#34;r&#34;:0.0,&#34;g&#34;:0.91764706373214722,&#34;b&#34;:0.64705884456634521,&#34;a&#34;:0.20000000298023224},&#34;position&#34;:0.0},{&#34;color&#34;:{&#34;r&#34;:0.52156865596771240,&#34;g&#34;:1.0,&#34;b&#34;:0.85882353782653809,&#34;a&#34;:1.0},&#34;position&#34;:1.0}],&#34;stopsVar&#34;:[{&#34;color&#34;:{&#34;r&#34;:0.0,&#34;g&#34;:0.91764706373214722,&#34;b&#34;:0.64705884456634521,&#34;a&#34;:0.20000000298023224},&#34;position&#34;:0.0},{&#34;color&#34;:{&#34;r&#34;:0.52156865596771240,&#34;g&#34;:1.0,&#34;b&#34;:0.85882353782653809,&#34;a&#34;:1.0},&#34;position&#34;:1.0}],&#34;transform&#34;:{&#34;m00&#34;:9.6350469589233398,&#34;m01&#34;:10.025485992431641,&#34;m02&#34;:39.352210998535156,&#34;m10&#34;:-9.5116376876831055,&#34;m11&#34;:10.155561447143555,&#34;m12&#34;:63.933856964111328},&#34;opacity&#34;:1.0,&#34;blendMode&#34;:&#34;NORMAL&#34;,&#34;visible&#34;:true}"/>
<g clip-path="url(#paint1_angular_657_7367_clip_path)" data-figma-skip-parse="true"><g transform="matrix(0.0395 -0.039 0.0488807 0.0366162 48 65)"><foreignObject x="-1020.41" y="-1020.41" width="2040.81" height="2040.81"><div xmlns="http://www.w3.org/1999/xhtml" style="background:conic-gradient(from 90deg,rgba(0, 234, 165, 0.2) 0deg,rgba(133, 255, 219, 1) 360deg);height:100%;width:100%;opacity:1"></div></foreignObject></g></g><path d="M86.4 64.7999H87.15C87.15 54.4167 83.0253 44.4587 75.6832 37.1167L75.1529 37.647L74.6226 38.1773C81.6833 45.2381 85.65 54.8145 85.65 64.7999H86.4ZM75.1529 37.647L75.6832 37.1167C68.3412 29.7746 58.3832 25.6499 48 25.6499V26.3999V27.1499C57.9854 27.1499 67.5618 31.1166 74.6226 38.1773L75.1529 37.647ZM48 26.3999V25.6499C37.6168 25.6499 27.6588 29.7746 20.3168 37.1167L20.8471 37.647L21.3774 38.1773C28.4382 31.1166 38.0146 27.1499 48 27.1499V26.3999ZM20.8471 37.647L20.3168 37.1167C12.9747 44.4587 8.85 54.4167 8.85 64.7999H9.6H10.35C10.35 54.8145 14.3167 45.2381 21.3774 38.1773L20.8471 37.647Z" data-figma-gradient-fill="{&#34;type&#34;:&#34;GRADIENT_ANGULAR&#34;,&#34;stops&#34;:[{&#34;color&#34;:{&#34;r&#34;:0.0,&#34;g&#34;:0.91764706373214722,&#34;b&#34;:0.64705884456634521,&#34;a&#34;:0.20000000298023224},&#34;position&#34;:0.0},{&#34;color&#34;:{&#34;r&#34;:0.52156865596771240,&#34;g&#34;:1.0,&#34;b&#34;:0.85882353782653809,&#34;a&#34;:1.0},&#34;position&#34;:1.0}],&#34;stopsVar&#34;:[{&#34;color&#34;:{&#34;r&#34;:0.0,&#34;g&#34;:0.91764706373214722,&#34;b&#34;:0.64705884456634521,&#34;a&#34;:0.20000000298023224},&#34;position&#34;:0.0},{&#34;color&#34;:{&#34;r&#34;:0.52156865596771240,&#34;g&#34;:1.0,&#34;b&#34;:0.85882353782653809,&#34;a&#34;:1.0},&#34;position&#34;:1.0}],&#34;transform&#34;:{&#34;m00&#34;:79.000007629394531,&#34;m01&#34;:97.761329650878906,&#34;m02&#34;:-40.380668640136719,&#34;m10&#34;:-78.0,&#34;m11&#34;:73.232398986816406,&#34;m12&#34;:67.383796691894531},&#34;opacity&#34;:1.0,&#34;blendMode&#34;:&#34;NORMAL&#34;,&#34;visible&#34;:true}"/>
<g clip-path="url(#paint2_angular_657_7367_clip_path)" data-figma-skip-parse="true"><g transform="matrix(0.0085 -0.008 0.0109868 0.0116735 61 52)"><foreignObject x="-1076.52" y="-1076.52" width="2153.04" height="2153.04"><div xmlns="http://www.w3.org/1999/xhtml" style="background:conic-gradient(from 90deg,rgba(0, 234, 165, 0.2) 0deg,rgba(133, 255, 219, 1) 360deg);height:100%;width:100%;opacity:1"></div></foreignObject></g></g><path d="M65.7521 47.3647L66.3619 47.8012C66.5735 47.5057 66.5427 47.1011 66.2889 46.8409C66.0351 46.5808 65.6313 46.54 65.3307 46.7442L65.7521 47.3647ZM55.3848 61.8461L55.9947 62.2826L66.3619 47.8012L65.7521 47.3647L65.1422 46.9281L54.775 61.4095L55.3848 61.8461ZM65.7521 47.3647L65.3307 46.7442L50.5324 56.7947L50.9538 57.4152L51.3752 58.0356L66.1734 47.9851L65.7521 47.3647Z" data-figma-gradient-fill="{&#34;type&#34;:&#34;GRADIENT_ANGULAR&#34;,&#34;stops&#34;:[{&#34;color&#34;:{&#34;r&#34;:0.0,&#34;g&#34;:0.91764706373214722,&#34;b&#34;:0.64705884456634521,&#34;a&#34;:0.20000000298023224},&#34;position&#34;:0.0},{&#34;color&#34;:{&#34;r&#34;:0.52156865596771240,&#34;g&#34;:1.0,&#34;b&#34;:0.85882353782653809,&#34;a&#34;:1.0},&#34;position&#34;:1.0}],&#34;stopsVar&#34;:[{&#34;color&#34;:{&#34;r&#34;:0.0,&#34;g&#34;:0.91764706373214722,&#34;b&#34;:0.64705884456634521,&#34;a&#34;:0.20000000298023224},&#34;position&#34;:0.0},{&#34;color&#34;:{&#34;r&#34;:0.52156865596771240,&#34;g&#34;:1.0,&#34;b&#34;:0.85882353782653809,&#34;a&#34;:1.0},&#34;position&#34;:1.0}],&#34;transform&#34;:{&#34;m00&#34;:16.999998092651367,&#34;m01&#34;:21.973562240600586,&#34;m02&#34;:41.513221740722656,&#34;m10&#34;:-16.0,&#34;m11&#34;:23.346906661987305,&#34;m12&#34;:48.326545715332031},&#34;opacity&#34;:1.0,&#34;blendMode&#34;:&#34;NORMAL&#34;,&#34;visible&#34;:true}"/>
<line x1="48.75" y1="29.3538" x2="48.75" y2="36.7384" stroke="url(#paint3_linear_657_7367)" stroke-width="1.5" stroke-linejoin="round"/>
<line x1="23.4223" y1="39.1621" x2="28.644" y2="44.3838" stroke="url(#paint4_linear_657_7367)" stroke-width="1.5" stroke-linejoin="round"/>
<line x1="68.1462" y1="44.3835" x2="73.3679" y2="39.1618" stroke="url(#paint5_linear_657_7367)" stroke-width="1.5" stroke-linejoin="round"/>
<line x1="12.5537" y1="64.05" x2="19.9383" y2="64.05" stroke="url(#paint6_linear_657_7367)" stroke-width="1.5" stroke-linejoin="round"/>
<line x1="76.0617" y1="64.05" x2="83.4463" y2="64.05" stroke="url(#paint7_linear_657_7367)" stroke-width="1.5" stroke-linejoin="round"/>
<defs>
<clipPath id="paint0_angular_657_7367_clip_path"><path d="M53.4159 65.2922H52.6659C52.6659 67.5969 50.7975 69.4653 48.4928 69.4653V70.2153V70.9653C51.626 70.9653 54.1659 68.4254 54.1659 65.2922H53.4159ZM48.4928 70.2153V69.4653C46.1881 69.4653 44.3197 67.5969 44.3197 65.2922H43.5697H42.8197C42.8197 68.4254 45.3596 70.9653 48.4928 70.9653V70.2153ZM43.5697 65.2922H44.3197C44.3197 62.9875 46.1881 61.1191 48.4928 61.1191V60.3691V59.6191C45.3596 59.6191 42.8197 62.1591 42.8197 65.2922H43.5697ZM48.4928 60.3691V61.1191C50.7975 61.1191 52.6659 62.9875 52.6659 65.2922H53.4159H54.1659C54.1659 62.1591 51.626 59.6191 48.4928 59.6191V60.3691Z"/></clipPath><clipPath id="paint1_angular_657_7367_clip_path"><path d="M86.4 64.7999H87.15C87.15 54.4167 83.0253 44.4587 75.6832 37.1167L75.1529 37.647L74.6226 38.1773C81.6833 45.2381 85.65 54.8145 85.65 64.7999H86.4ZM75.1529 37.647L75.6832 37.1167C68.3412 29.7746 58.3832 25.6499 48 25.6499V26.3999V27.1499C57.9854 27.1499 67.5618 31.1166 74.6226 38.1773L75.1529 37.647ZM48 26.3999V25.6499C37.6168 25.6499 27.6588 29.7746 20.3168 37.1167L20.8471 37.647L21.3774 38.1773C28.4382 31.1166 38.0146 27.1499 48 27.1499V26.3999ZM20.8471 37.647L20.3168 37.1167C12.9747 44.4587 8.85 54.4167 8.85 64.7999H9.6H10.35C10.35 54.8145 14.3167 45.2381 21.3774 38.1773L20.8471 37.647Z"/></clipPath><clipPath id="paint2_angular_657_7367_clip_path"><path d="M65.7521 47.3647L66.3619 47.8012C66.5735 47.5057 66.5427 47.1011 66.2889 46.8409C66.0351 46.5808 65.6313 46.54 65.3307 46.7442L65.7521 47.3647ZM55.3848 61.8461L55.9947 62.2826L66.3619 47.8012L65.7521 47.3647L65.1422 46.9281L54.775 61.4095L55.3848 61.8461ZM65.7521 47.3647L65.3307 46.7442L50.5324 56.7947L50.9538 57.4152L51.3752 58.0356L66.1734 47.9851L65.7521 47.3647Z"/></clipPath><linearGradient id="paint3_linear_657_7367" x1="48.5" y1="36.7384" x2="48.5" y2="29.3538" gradientUnits="userSpaceOnUse">
<stop stop-color="#85FFDB"/>
<stop offset="1" stop-color="#00EAA5" stop-opacity="0"/>
</linearGradient>
<linearGradient id="paint4_linear_657_7367" x1="28.4673" y1="44.5605" x2="23.2455" y2="39.3388" gradientUnits="userSpaceOnUse">
<stop stop-color="#85FFDB"/>
<stop offset="1" stop-color="#00EAA5" stop-opacity="0"/>
</linearGradient>
<linearGradient id="paint5_linear_657_7367" x1="73.5447" y1="39.3386" x2="68.323" y2="44.5603" gradientUnits="userSpaceOnUse">
<stop stop-color="#00EAA5" stop-opacity="0"/>
<stop offset="1" stop-color="#85FFDB"/>
</linearGradient>
<linearGradient id="paint6_linear_657_7367" x1="19.9383" y1="64.3" x2="12.5537" y2="64.3" gradientUnits="userSpaceOnUse">
<stop stop-color="#85FFDB"/>
<stop offset="1" stop-color="#00EAA5" stop-opacity="0"/>
</linearGradient>
<linearGradient id="paint7_linear_657_7367" x1="83.4463" y1="64.3" x2="76.0617" y2="64.3" gradientUnits="userSpaceOnUse">
<stop stop-color="#00EAA5" stop-opacity="0"/>
<stop offset="1" stop-color="#85FFDB"/>
</linearGradient>
</defs>
</svg>
